# xmcd
# Track frame offsets:
# 150
# 14666
# 27930
# 47110
# 55231
# 69904
#
# Disc length: 1187 seconds
# Revision: 0
# Processed by: cddbd v1.5.1PL0 Copyright (c) Steve Scherf et al.
# Submitted via: VisiTrax 2.9.10.228 - For more info visit www.synapsa.com
#
DISCID=4b04a106
DTITLE=Various Artist - New Country 28 May-June 2005
DYEAR=2005
DGENRE=
TTITLE0=Bruce Larson - Two friends one night
TTITLE1=Floyd Flowers - She's got it
TTITLE2=Aldo - Open road
TTITLE3=Texarkana - I've got her right where she wants me
TTITLE4=Model Citizens - Cheatings precious moments
TTITLE5=Judy Sutton - A mother's love
EXTD=
EXTT0=
EXTT1=
EXTT2=
EXTT3=
EXTT4=
EXTT5=
PLAYORDER=
